Coordinates
version=1
nRows=23
nColumns=38
inDegrees=no

Units are S.I. units (second, meters, Newtons, ...)
If the header above contains a line with 'inDegrees', this indicates whether rotational values are in degrees (yes) or radians (no).

endheader
time	pelvis_tilt	pelvis_list	pelvis_rotation	pelvis_tx	pelvis_ty	pelvis_tz	hip_flexion_r	hip_adduction_r	hip_rotation_r	knee_angle_r	ankle_angle_r	subtalar_angle_r	mtp_angle_r	hip_flexion_l	hip_adduction_l	hip_rotation_l	knee_angle_l	ankle_angle_l	subtalar_angle_l	mtp_angle_l	lumbar_extension	lumbar_bending	lumbar_rotation	arm_flex_r	arm_add_r	arm_rot_r	elbow_flex_r	pro_sup_r	wrist_flex_r	wrist_dev_r	arm_flex_l	arm_add_l	arm_rot_l	elbow_flex_l	pro_sup_l	wrist_flex_l	wrist_dev_l
1.29	-1.50888	1.54965	-0.185187	0.754652	0.265018	1.04593	0.189934	-0.16348	-0.165381	1.15026	-0.252061	0	0	0.122425	-0.0484536	-0.372751	0.32334	-0.10857	0	0	-0.167592	-0.0247032	0.0559003	-0.0354489	-0.26235	0.26071	0.719683	1.5708	0	0	-0.0991805	-0.298413	0.265842	0.774191	1.21693	0	0
1.3	-1.53205	1.54565	-0.156255	0.755587	0.253055	1.04839	0.210571	-0.159219	-0.172225	1.15371	-0.212416	0	0	0.104338	-0.0481745	-0.367393	0.310486	-0.112384	0	0	-0.167681	-0.0181506	0.0430775	-0.048486	-0.254868	0.222052	0.72013	1.5708	0	0	-0.0948294	-0.301511	0.265009	0.781724	1.22502	0	0
1.31	-1.56339	1.54147	-0.119763	0.756397	0.241127	1.05073	0.231093	-0.154014	-0.177781	1.15398	-0.152426	0	0	0.0866756	-0.04906	-0.365281	0.297652	-0.118933	0	0	-0.167339	-0.0113965	0.0320595	-0.0635129	-0.243336	0.170676	0.7209	1.5708	0	0	-0.0896787	-0.306102	0.268443	0.789865	1.23	0	0
1.32	-1.75962	1.52943	0.0719713	0.756445	0.230393	1.05335	0.255955	-0.0990691	-0.106671	1.12886	-0.11284	0	0	0.0763247	-0.0594443	-0.36548	0.28516	-0.123416	0	0	-0.162516	0.00340264	0.0301541	-0.0679121	-0.241736	0.150506	0.711987	1.5708	0	0	-0.0794815	-0.308011	0.276711	0.78974	1.23015	0	0
1.33	-1.57166	1.5314	-0.106485	0.757699	0.217441	1.05528	0.270112	-0.14008	-0.190549	1.13917	-0.10111	0	0	0.0486877	-0.053496	-0.366726	0.270176	-0.128551	0	0	-0.168745	0.00366535	0.0141147	-0.0829682	-0.234368	0.113672	0.714949	1.5708	0	0	-0.0806094	-0.314846	0.273352	0.808069	1.23736	0	0
1.34	-1.71974	1.51868	0.037388	0.757712	0.207063	1.05773	0.292843	-0.0836216	-0.124357	1.10141	-0.0617641	0	0	0.0384049	-0.0646842	-0.365298	0.257379	-0.136108	0	0	-0.166241	0.0193587	0.0143378	-0.0868854	-0.226618	0.0751687	0.704107	1.5708	0	0	-0.0697365	-0.313938	0.273718	0.809196	1.24573	0	0
1.35	-1.58842	1.52004	-0.0829879	0.758868	0.194321	1.05933	0.305999	-0.124233	-0.215076	1.10371	-0.0531101	0	0	0.0125172	-0.0601547	-0.36549	0.243201	-0.141387	0	0	-0.172121	0.020098	-0.00176409	-0.0981664	-0.220328	0.0466686	0.702146	1.5708	0	0	-0.0699641	-0.321964	0.272083	0.82849	1.25036	0	0
1.36	-1.61036	1.5144	-0.0572333	0.759341	0.182837	1.06108	0.322792	-0.11552	-0.229815	1.07677	-0.0263828	0	0	-0.00474101	-0.0634609	-0.363964	0.228686	-0.152479	0	0	-0.17306	0.028287	-0.00800011	-0.104574	-0.210104	0.00571945	0.692774	1.5708	0	0	-0.0639781	-0.323943	0.268331	0.8378	1.26238	0	0
1.37	-1.75854	1.50149	0.0870027	0.759199	0.172653	1.06283	0.343452	-0.0575647	-0.163836	1.01414	-0.0109563	0	0	-0.0114587	-0.074417	-0.363132	0.216222	-0.155533	0	0	-0.167557	0.0438973	-0.00548455	-0.103757	-0.208703	-0.0116927	0.676026	1.5708	0	0	-0.0512646	-0.325364	0.27623	0.839179	1.26358	0	0
1.38	-1.78558	1.49629	0.119323	0.759745	0.161146	1.06396	0.358197	-0.0492719	-0.177843	0.973772	-0.00168667	0	0	-0.0266175	-0.0770496	-0.362105	0.202542	-0.16098	0	0	-0.166219	0.0516031	-0.0115012	-0.108347	-0.204222	-0.035602	0.664645	1.5708	0	0	-0.0444209	-0.32895	0.27779	0.849031	1.27054	0	0
1.39	-1.80006	1.49129	0.140272	0.760314	0.149651	1.06487	0.37005	-0.0411605	-0.191631	0.928585	0.00444786	0	0	-0.0427811	-0.0794356	-0.359412	0.188038	-0.167549	0	0	-0.165541	0.0589977	-0.0185564	-0.110794	-0.222032	0.00797098	0.65703	1.48131	0	0	-0.0377285	-0.332505	0.278185	0.859245	1.27764	0	0
1.4	-1.81334	1.48694	0.159625	0.760772	0.138279	1.06555	0.380018	-0.0329855	-0.203742	0.878186	0.00624045	0	0	-0.0591487	-0.0810968	-0.356305	0.173127	-0.172522	0	0	-0.165908	0.0655381	-0.0233948	-0.114947	-0.204757	-0.0534064	0.642873	1.53785	0	0	-0.0306463	-0.333184	0.272029	0.8691	1.29339	0	0
1.41	-1.8375	1.48277	0.189425	0.76114	0.126886	1.06579	0.388854	-0.0244672	-0.214087	0.82282	0.00883473	0	0	-0.073719	-0.082921	-0.356007	0.160564	-0.172712	0	0	-0.164596	0.0714936	-0.027871	-0.117701	-0.210317	-0.0449775	0.632289	1.50733	0	0	-0.0218984	-0.339104	0.279595	0.879699	1.29203	0	0
1.42	-1.85082	1.47906	0.209366	0.761514	0.115467	1.0658	0.393499	-0.0161178	-0.22392	0.760739	0.00809854	0	0	-0.0893669	-0.0844382	-0.353538	0.147214	-0.175753	0	0	-0.164718	0.0770329	-0.032763	-0.119657	-0.207483	-0.0612723	0.619703	1.51458	0	0	-0.0142997	-0.342521	0.279569	0.890937	1.29884	0	0
1.43	-1.85977	1.47576	0.226022	0.761904	0.10401	1.06548	0.394596	-0.00809761	-0.233196	0.692227	0.00477852	0	0	-0.104958	-0.0860944	-0.350156	0.13473	-0.178425	0	0	-0.165302	0.0821531	-0.0387027	-0.120818	-0.206339	-0.0711804	0.607173	1.51982	0	0	-0.00719636	-0.346263	0.27901	0.903117	1.30468	0	0
1.44	-1.85779	1.47284	0.232612	0.762305	0.0925261	1.06491	0.391496	6.52001e-05	-0.241505	0.617395	-0.00248492	0	0	-0.121089	-0.0881244	-0.346311	0.123149	-0.180681	0	0	-0.167246	0.0871406	-0.0453548	-0.120941	-0.205943	-0.0778435	0.594436	1.52644	0	0	-0.000286431	-0.349935	0.27758	0.915848	1.31042	0	0
1.45	-1.86915	1.47016	0.251203	0.762543	0.0808762	1.06385	0.387754	0.00859952	-0.245251	0.538864	-0.0140987	0	0	-0.135922	-0.0899517	-0.344762	0.112609	-0.181312	0	0	-0.167309	0.0913555	-0.0507261	-0.12114	-0.206376	-0.081305	0.581338	1.53426	0	0	0.00565916	-0.35315	0.275493	0.928428	1.31569	0	0
1.46	-1.88088	1.46837	0.270091	0.762697	0.0690909	1.06235	0.381656	0.0163895	-0.246315	0.456395	-0.0313305	0	0	-0.150794	-0.0911861	-0.343632	0.102666	-0.18052	0	0	-0.167257	0.0944666	-0.0558646	-0.121262	-0.206938	-0.0833112	0.568281	1.54363	0	0	0.0111318	-0.356473	0.273232	0.941386	1.3207	0	0
1.47	-1.88009	1.46766	0.277124	0.762878	0.0572351	1.06047	0.372235	0.0230419	-0.246169	0.371797	-0.0586386	0	0	-0.167053	-0.0920398	-0.342319	0.0933614	-0.1773	0	0	-0.168602	0.0968007	-0.0624239	-0.121145	-0.240085	0.0305531	0.564684	1.401	0	0	0.0151357	-0.360308	0.2696	0.956091	1.32482	0	0
1.48	-1.89796	1.46854	0.303111	0.762923	0.0452555	1.05809	0.363779	0.0270599	-0.243259	0.288749	-0.0862948	0	0	-0.181588	-0.0909594	-0.339369	0.0845748	-0.172134	0	0	-0.16868	0.0966695	-0.0671281	-0.121682	-0.212491	-0.0664545	0.544465	1.54257	0	0	0.0201918	-0.363916	0.267194	0.970127	1.32997	0	0
1.49	-1.92761	1.47074	0.34021	0.762896	0.0331741	1.05515	0.356719	0.0286603	-0.237119	0.210561	-0.103425	0	0	-0.195157	-0.0882431	-0.337756	0.0770986	-0.166705	0	0	-0.167394	0.094509	-0.0719096	-0.122367	-0.215602	-0.0529757	0.532538	1.53506	0	0	0.0247124	-0.368529	0.266501	0.984138	1.33127	0	0
1.5	-1.97351	1.47428	0.39306	0.762801	0.0210234	1.05176	0.351372	0.0273527	-0.229181	0.137666	-0.117413	0	0	-0.207904	-0.0834449	-0.335877	0.0698252	-0.160721	0	0	-0.1653	0.0902397	-0.0759092	-0.122924	-0.218853	-0.0365335	0.52028	1.5245	0	0	0.0292346	-0.373138	0.266224	0.997792	1.33209	0	0
1.51	-2.03172	1.47878	0.45786	0.762631	0.00874248	1.048	0.347276	0.0235579	-0.21993	0.0716183	-0.120277	0	0	-0.220064	-0.0773185	-0.334961	0.063725	-0.156856	0	0	-0.163051	0.0844823	-0.0789609	-0.124036	-0.218393	-0.0328232	0.508001	1.52838	0	0	0.03385	-0.377779	0.266821	1.01115	1.33395	0	0
